<svg width="463" height="41" viewBox="0 0 463 41" fill="none" xmlns="http://www.w3.org/2000/svg">
<g filter="url(#filter0_d_257_28321)">
<path d="M13.7022 16.5071C17.2646 16.5071 20.9966 16.3386 24.559 16.1702C26.0857 16.1702 27.4428 16.0017 28.9696 16.0017C35.4158 15.6649 41.862 15.328 48.3082 14.9911C56.1115 14.6542 63.7452 14.1489 71.5485 13.812C82.5749 13.1383 93.6013 12.633 104.628 11.9592C107.172 11.7908 109.717 11.7908 112.261 11.6223C118.708 11.2854 125.154 10.9486 131.6 10.7801C138.046 10.4432 144.493 10.1064 150.939 9.93793C153.483 9.76949 156.028 9.60106 158.572 9.60106C168.751 9.26418 179.099 8.92729 189.277 8.59041C195.553 8.42197 201.83 8.25354 208.276 7.91666C210.821 7.91666 213.196 7.74821 215.74 7.74821C225.579 7.57977 235.588 7.41134 245.427 7.2429C255.266 7.07446 264.935 6.90602 274.774 6.73758C277.318 6.73758 279.863 6.73758 282.577 6.73758C289.023 6.73758 295.3 6.73758 301.746 6.73758C311.755 6.73758 321.594 6.73758 331.602 6.56914C334.826 6.56914 338.049 6.56914 341.272 6.56914C348.057 6.56914 354.843 6.56914 361.628 6.56914C362.137 6.56914 362.816 6.56914 363.325 6.56914C348.057 6.73758 332.62 6.90602 317.353 7.2429C310.907 7.41134 304.63 7.41134 298.184 7.57978C295.47 7.57978 292.586 7.57977 289.872 7.74821C280.542 7.91665 271.381 8.25353 262.051 8.42197C251.364 8.75885 240.677 8.92729 229.99 9.26417C228.124 9.26417 226.427 9.43261 224.561 9.43261C218.794 9.76949 213.196 9.93793 207.428 10.2748C195.893 10.7801 184.357 11.2854 172.822 11.7908C171.126 11.7908 169.429 11.9592 167.733 12.1276C162.135 12.4645 156.367 12.9698 150.769 13.3067C140.591 13.9805 130.582 14.6542 120.404 15.328C117.69 15.4964 114.806 15.8333 112.092 16.0017C105.646 16.5071 99.1994 17.0124 92.7532 17.6861C84.6106 18.3599 76.2983 19.0337 68.1558 19.7074C56.7901 20.7181 45.2547 21.7287 33.889 22.7393C31.1748 22.9078 28.4606 23.2446 25.5768 23.4131C20.6573 23.9184 15.7378 24.4237 10.8184 24.929C10.3095 24.929 9.80055 25.2659 9.80055 25.9397C9.80055 26.445 10.3095 26.9503 10.8184 26.9503C12.6844 26.9503 14.3808 27.1188 16.2468 27.1188C16.0771 27.6241 15.9075 28.1294 15.9075 28.6347C15.9075 30.4876 17.4342 32.1719 19.4699 32.1719C33.5498 31.3297 47.46 30.3191 61.5399 29.6453C73.7538 29.14 85.9677 28.4663 98.1816 27.9609C111.583 27.2872 125.154 26.6134 138.555 26.1081C142.796 25.9397 147.037 25.7712 151.278 25.4344C152.465 25.4344 153.653 25.2659 155.01 25.2659C176.724 24.7606 198.437 24.0868 220.151 23.5815C231.686 23.2446 243.391 22.9078 254.926 22.7393C259.167 22.5709 263.239 22.5709 267.48 22.4025C289.702 22.0656 311.924 21.7287 334.147 21.3918C343.647 21.2234 353.146 21.0549 362.646 20.8865C370.789 20.7181 378.931 20.7181 387.074 20.3812C393.859 20.2127 400.475 19.8759 407.261 19.7074C410.653 19.539 414.046 19.539 417.269 19.3705C424.903 18.8652 432.537 18.3599 440.17 17.8546C439.661 18.5283 439.661 19.539 439.831 20.2127C440.001 21.0549 440.51 21.7287 441.358 22.0656C442.036 22.4024 443.054 22.7393 443.733 22.4025C445.429 21.7287 447.125 21.0549 448.652 20.3812C448.652 20.3812 448.652 20.3812 448.482 20.3812C448.652 20.3812 448.652 20.2127 448.822 20.2127C448.991 20.2127 449.161 20.0443 449.161 20.0443H448.991C449.84 19.7074 450.688 19.3705 451.706 18.8652C452.554 18.5283 453.572 18.023 454.42 17.6861C455.438 17.1808 456.286 16.6755 457.304 16.1702C458.321 15.6649 459 14.3174 459 13.1383C459 12.4645 458.83 11.9592 458.491 11.2855C458.152 10.6117 457.304 9.7695 456.455 9.60106C455.607 9.43262 454.759 9.26417 453.911 9.26417C453.741 9.26417 453.572 9.26417 453.402 9.26417C452.893 9.26417 452.215 9.26417 451.706 9.43261C450.349 9.60105 449.161 9.76949 447.804 9.76949C446.786 9.76949 445.768 9.93793 444.581 9.93793C441.697 10.1064 438.983 10.2748 436.099 10.6117C435.42 10.6117 434.572 10.7801 433.894 10.7801C434.233 10.4432 434.403 10.1064 434.403 9.76949C434.572 9.43262 434.572 9.09574 434.572 8.75886C434.572 8.59042 434.572 8.25354 434.742 8.0851C434.742 7.74822 434.742 7.41134 434.572 7.2429C434.572 7.2429 434.742 7.24291 434.742 7.07447C435.251 6.73759 435.76 6.4007 436.099 5.72694C436.438 5.22163 436.608 4.54787 436.608 3.87411C436.608 3.20036 436.438 2.69504 436.099 2.02128C435.929 1.85284 435.76 1.51596 435.59 1.34752C435.081 0.842202 434.572 0.673763 434.063 0.505324C433.045 0.168445 431.858 0 430.671 0C429.653 0 428.805 0 427.787 0C426.43 0 425.073 0 423.715 0C421.849 0 419.814 0 417.948 0C412.859 0 407.77 0 402.68 0C397.931 0 393.011 0 388.261 0C383.851 0 379.61 0 375.199 0C357.727 0 340.424 0.168447 322.951 0.336887C309.889 0.505326 296.827 0.67376 283.765 0.67376C277.997 0.67376 272.06 0.842195 266.292 1.01063C253.23 1.34751 240.168 1.51595 227.106 1.85283C223.374 1.85283 219.642 2.02128 215.91 2.02128C213.705 2.02128 211.669 2.18972 209.464 2.18972C196.571 2.69504 183.679 3.20036 170.786 3.70568C166.885 3.87412 162.983 4.04255 158.912 4.21099C156.706 4.21099 154.501 4.37943 152.296 4.54787C139.403 5.22163 126.681 5.89538 113.788 6.56914C107.172 6.90602 100.556 7.24289 93.9406 7.74821C82.5749 8.42197 71.2092 9.09573 60.0132 9.93793C50.1742 10.6117 40.3353 11.117 30.4963 11.6223C28.9696 11.7908 27.4428 11.7908 25.7464 11.9592C23.2019 12.1276 20.6573 12.1276 18.1128 12.2961C15.9075 12.4645 13.7022 12.4645 11.3273 12.4645C11.1576 11.9592 10.4791 11.4539 9.97018 11.4539C8.44345 11.6223 7.08635 11.7908 5.55961 11.9592C4.88107 11.9592 4.20252 12.2961 4.03288 13.1383C3.86324 13.9805 4.37215 14.8227 5.0507 14.9911C5.72925 15.1596 6.23816 15.328 6.91671 15.4964C7.59526 15.6649 8.10417 15.6649 8.78272 15.6649C10.4791 16.3386 12.0058 16.3386 13.7022 16.5071ZM410.653 10.9486C412.689 10.9486 414.894 10.9486 416.93 10.9486C417.1 11.4539 417.439 11.7908 417.778 12.1276C416.93 12.1276 416.082 12.2961 415.403 12.2961C413.876 12.2961 412.35 12.4645 410.823 12.4645C404.038 12.633 397.422 12.9698 390.636 13.1383C387.583 13.3067 384.529 13.4752 381.476 13.4752C376.726 13.4752 371.806 13.6436 367.057 13.6436C356.03 13.812 345.173 13.9805 334.147 14.1489C312.773 14.4858 291.568 14.8227 270.194 15.1596C254.926 15.328 239.659 15.8333 224.392 16.3386C201.491 17.0124 178.42 17.5177 155.519 18.1915C150.939 18.3599 146.359 18.5283 141.778 18.8652C128.716 19.539 115.654 20.0443 102.592 20.7181C89.8693 21.3918 76.9769 21.8971 64.2541 22.5709C63.0666 22.5709 61.8792 22.7393 60.6917 22.7393C64.0845 22.4025 67.6468 22.234 71.0396 21.8971C83.0838 21.0549 95.1281 20.0443 107.172 19.2021C111.413 18.8652 115.654 18.5283 119.725 18.1915C121.931 18.023 124.136 17.8546 126.172 17.8546C138.725 17.1808 151.278 16.3386 163.831 15.6649C166.206 15.4964 168.751 15.328 171.126 15.1596C174.688 14.9911 178.25 14.8227 181.643 14.8227C194.536 14.3174 207.428 13.812 220.32 13.3067C223.204 13.1383 226.088 13.1383 228.802 12.9698C229.481 12.9698 230.329 12.9698 231.008 12.9698C233.043 12.9698 235.079 12.9698 236.945 12.8014C249.837 12.4645 262.899 12.2961 275.792 11.9592C281.729 11.7908 287.666 11.6223 293.604 11.6223C312.773 11.4539 332.111 11.2854 351.28 11.117C371.467 11.117 391.145 11.117 410.653 10.9486Z" fill="#26A4FF"/>
</g>
<defs>
<filter id="filter0_d_257_28321" x="0" y="0" width="463" height="40.1719" filterUnits="userSpaceOnUse" color-interpolation-filters="sRGB">
<feFlood flood-opacity="0" result="BackgroundImageFix"/>
<feColorMatrix in="SourceAlpha" type="matrix" values="0 0 0 0 0 0 0 0 0 0 0 0 0 0 0 0 0 0 127 0" result="hardAlpha"/>
<feOffset dy="4"/>
<feGaussianBlur stdDeviation="2"/>
<feComposite in2="hardAlpha" operator="out"/>
<feColorMatrix type="matrix" values="0 0 0 0 0 0 0 0 0 0 0 0 0 0 0 0 0 0 0.25 0"/>
<feBlend mode="normal" in2="BackgroundImageFix" result="effect1_dropShadow_257_28321"/>
<feBlend mode="normal" in="SourceGraphic" in2="effect1_dropShadow_257_28321" result="shape"/>
</filter>
</defs>
</svg>
